/* XPM */
static char * DeleteAllFolds_xpm[] = {
"18 18 3 1",
" 	c None",
".	c #AD1532",
"+	c #4444D0",
"                  ",
" ......           ",
" ......  +        ",
" .....   ++       ",
"  ....   +++  ++  ",
"  ....   +++  ++  ",
"  ...    ++       ",
"  ...    +        ",
"   ..             ",
"   .     +        ",
"   .     ++       ",
"         +++  ++  ",
"         +++  ++  ",
"  ....   ++       ",
" ......  +        ",
" ......           ",
"  ....            ",
"                  "};
